<?xml version="1.0"?><svg version="1.2" baseProfile="tiny-ps" viewBox="0 0 300 300" xmlns="http://www.w3.org/2000/svg" xmlns:xlink="http://www.w3.org/1999/xlink"><title>Floats.ai</title><g><g fill="#fff" transform="matrix(.1 0 0 -.1 0 300)"><path d="M0 1500V0h3000v3000H0V1500z"/></g><g fill="#bdc6e3" transform="matrix(.1 0 0 -.1 0 300)"><path d="M0 1500V0h3000v3000H0V1500zm1821 499c20-38 90-109 130-131l39-22v-12c0-27-23-70-53-102l-31-32-36-10-35-10h-637l4 88 4 87 24 45 25 44 41 29c23 16 57 33 75 37l34 8 202 1 202 1 12-21zm-631-489v-170H775l-41 19-41 18-21 28c-12 15-27 45-32 66l-11 39 11 39c18 66 58 106 125 122 17 4 119 7 228 8l197 1v-170zm434-180c48-11 83-36 114-81l24-34-4-56-4-55-24-33-23-33-41-19-41-19h-425v340h385l39-10zm-434-505V660H993l-43 23-44 23-24 45-24 44 5 46 4 46 23 33c12 17 37 41 54 51l31 19h215V825z"/></g><g fill="#5469b6" transform="matrix(.1 0 0 -.1 0 300)"><path d="M0 1500V0h3000v3000H0V1500zm1845 472 30-47 58-40 59-40-5-33c-3-18-15-46-27-62l-22-30-38-20-39-20h-661v-340h426l44-22 44-23 19-26c10-14 22-42 27-62l8-37-8-37c-10-42-34-78-74-107l-27-21-230-3-229-3V658l-119 4-120 3-27 21c-15 11-37 32-48 47l-19 26-5 55-4 54 23 42 23 41 36 22 35 22 113 4 112 3v338H757l-43 25-42 25-21 43-21 43v32c0 65 45 132 107 158l32 14h431v165l19 40c10 22 34 55 54 73l34 33 39 14 39 14h430l30-47z"/></g><g fill="#e50a70" transform="matrix(.1 0 0 -.1 0 300)"><path d="M0 1500V0h3000v3000H0V1500zm1834 493c20-40 72-90 123-120l43-25-6-26c-14-57-49-104-96-128l-27-14h-671v-340h431l32-14 32-13 32-36 32-36 6-45 7-45-12-36-12-36-33-33-33-33-45-12-46-11h-391V650h-171l-44 11-44 11-34 35-35 34-11 45-12 45 11 39 11 39 24 29c14 16 40 37 59 46l34 16h202v340H743l-33 23c-18 12-43 35-54 50l-21 28v136l27 35 27 35 34 17 35 16h432v55c0 29 5 77 11 105l11 51 31 41 32 41 45 23 45 23 227 1h227l15-27z"/></g><g fill="#8d1b82" transform="matrix(.1 0 0 -.1 0 300)"><path d="M0 1500V0h3000v3000H0V1500zm2192 677 5-62 22-52c13-28 34-61 47-74 13-12 24-26 24-31v-9l-152 3-153 3-34 67-34 66-5 71-5 70 79 4c44 1 107 4 140 5l61 2 5-63zm-358-184c20-40 72-90 123-120l43-25-6-26c-14-57-49-104-96-128l-27-14h-671v-340h431l32-14 32-13 32-36 32-36 6-45 7-45-12-36-12-36-33-33-33-33-45-12-46-11h-391V650h-171l-44 11-44 11-34 35-35 34-11 45-12 45 11 39 11 39 24 29c14 16 40 37 59 46l34 16h202v340H743l-33 23c-18 12-43 35-54 50l-21 28v136l27 35 27 35 34 17 35 16h432v55c0 29 5 77 11 105l11 51 31 41 32 41 45 23 45 23 227 1h227l15-27z"/></g><g fill="#13309b" transform="matrix(.1 0 0 -.1 0 300)"><path d="M0 1500V0h3000v3000H0V1500zm2194 688c4-29 14-75 22-101l16-48 33-44c19-24 31-46 28-49-4-3-70-6-149-6h-142l-25 30c-14 16-35 55-47 87l-21 57-6 63-6 63h290l7-52zm-360-195c20-40 72-90 123-120l43-25-6-26c-14-57-49-104-96-128l-27-14h-671v-340h431l32-14 32-13 32-36 32-36 6-45 7-45-12-36-12-36-33-33-33-33-45-12-46-11h-391V650h-171l-44 11-44 11-34 35-35 34-11 45-12 45 11 39 11 39 24 29c14 16 40 37 59 46l34 16h202v340H743l-33 23c-18 12-43 35-54 50l-21 28v136l27 35 27 35 34 17 35 16h432v55c0 29 5 77 11 105l11 51 31 41 32 41 45 23 45 23 227 1h227l15-27z"/></g></g></svg>