<svg width="16" height="17" viewBox="0 0 16 17" fill="none" xmlns="http://www.w3.org/2000/svg">
<path d="M12.2358 5.4063C11.299 4.94504 10.9355 4.4795 10.6373 3.87683H7.1376C6.01132 3.87683 5.0983 4.78986 5.0983 5.91613V6.93578H10.7064C11.5511 6.93578 12.2358 6.25101 12.2358 5.4063Z" fill="#131313"/>
<path d="M0 8.46526C0 7.62056 0.684769 6.93579 1.52947 6.93579H5.09824V9.99474H1.52947C0.684769 9.99474 0 9.30997 0 8.46526Z" fill="#131313"/>
<path d="M2.03906 14.5831C2.03906 13.7384 2.72383 13.0536 3.56854 13.0536H5.09801V16.1125H3.56854C2.72383 16.1125 2.03906 15.4278 2.03906 14.5831Z" fill="#131313"/>
<path d="M10.1963 11.5242C10.1963 10.6795 9.51152 9.99475 8.66682 9.99475H5.09804V13.0537H8.66682C9.51152 13.0537 10.1963 12.3689 10.1963 11.5242Z" fill="#131313"/>
<path d="M14.517 1.99111L14.0177 1.98107L14.517 1.99111C14.5213 1.77963 14.3678 1.39896 13.9498 1.40384L11.4803 1.4327C11.1174 1.43694 10.9371 1.74751 10.9307 1.98302C10.9258 2.16145 10.9277 2.62357 11.0498 3.1672C11.1712 3.70784 11.4199 4.36685 11.9365 4.89835C12.0335 4.99818 12.1756 5.06848 12.3391 5.06657L12.3446 5.0665L12.3501 5.06644L12.3555 5.06638L12.361 5.06631L12.3664 5.06625L12.3718 5.06619L12.3773 5.06612L12.3827 5.06606L12.3882 5.066L12.3936 5.06593L12.399 5.06587L12.4044 5.06581L12.4099 5.06574L12.4153 5.06568L12.4207 5.06562L12.4261 5.06555L12.4315 5.06549L12.4369 5.06543L12.4423 5.06536L12.4477 5.0653L12.4531 5.06524L12.4585 5.06517L12.4639 5.06511L12.4693 5.06505L12.4747 5.06498L12.4801 5.06492L12.4855 5.06486L12.4908 5.0648L12.4962 5.06473L12.5016 5.06467L12.5069 5.06461L12.5123 5.06455L12.5177 5.06448L12.523 5.06442L12.5284 5.06436L12.5338 5.06429L12.5391 5.06423L12.5445 5.06417L12.5498 5.06411L12.5551 5.06404L12.5605 5.06398L12.5658 5.06392L12.5712 5.06386L12.5765 5.0638L12.5818 5.06373L12.5872 5.06367L12.5925 5.06361L12.5978 5.06355L12.6031 5.06348L12.6085 5.06342L12.6138 5.06336L12.6191 5.0633L12.6244 5.06324L12.6297 5.06317L12.635 5.06311L12.6403 5.06305L12.6456 5.06299L12.6509 5.06293L12.6562 5.06286L12.6615 5.0628L12.6668 5.06274L12.6721 5.06268L12.6773 5.06262L12.6826 5.06256L12.6879 5.06249L12.6932 5.06243L12.6985 5.06237L12.7037 5.06231L12.709 5.06225L12.7143 5.06219L12.7195 5.06212L12.7248 5.06206L12.7301 5.062L12.7353 5.06194L12.7406 5.06188L12.7458 5.06182L12.7511 5.06176L12.7563 5.06169L12.7616 5.06163L12.7668 5.06157L12.772 5.06151L12.7773 5.06145L12.7825 5.06139L12.7878 5.06133L12.793 5.06127L12.7982 5.0612L12.8034 5.06114L12.8087 5.06108L12.8139 5.06102L12.8191 5.06096L12.8243 5.0609L12.8295 5.06084L12.8347 5.06078L12.84 5.06072L12.8452 5.06066L12.8504 5.0606L12.8556 5.06053L12.8608 5.06047L12.866 5.06041L12.8712 5.06035L12.8764 5.06029L12.8815 5.06023L12.8867 5.06017L12.8919 5.06011L12.8971 5.06005L12.9023 5.05999L12.9075 5.05993L12.9127 5.05987L12.9178 5.05981L12.923 5.05975L12.9282 5.05969L12.9333 5.05963L12.9385 5.05957L12.9437 5.05951L12.9488 5.05945L12.954 5.05938L12.9592 5.05932L12.9643 5.05926L12.9695 5.0592L12.9746 5.05914L12.9798 5.05908L12.9849 5.05902L12.9901 5.05896L12.9952 5.0589L13.0004 5.05884L13.0055 5.05878L13.0106 5.05872L13.0158 5.05866L13.0209 5.0586L13.026 5.05854L13.0312 5.05848L13.0363 5.05842L13.0414 5.05836L13.0465 5.0583L13.0517 5.05824L13.0568 5.05818L13.0619 5.05812L13.067 5.05806L13.0721 5.058L13.0773 5.05794L13.0824 5.05789L13.0875 5.05783L13.0926 5.05777L13.0977 5.05771L13.1028 5.05765L13.1079 5.05759L13.113 5.05753L13.1181 5.05747L13.1232 5.05741L13.1283 5.05735L13.1334 5.05729L13.1385 5.05723L13.1435 5.05717L13.1486 5.05711L13.1537 5.05705L13.1588 5.05699L13.1639 5.05693L13.169 5.05687L13.174 5.05681L13.1791 5.05675L13.1842 5.0567L13.1893 5.05664L13.1943 5.05658L13.1994 5.05652L13.2045 5.05646L13.2095 5.0564L13.2146 5.05634L13.2197 5.05628L13.2247 5.05622L13.2298 5.05616L13.2348 5.0561L13.2399 5.05604L13.2449 5.05599L13.25 5.05593L13.255 5.05587L13.2601 5.05581L13.2651 5.05575L13.2702 5.05569L13.2752 5.05563L13.2803 5.05557L13.2853 5.05551L13.2904 5.05546L13.2954 5.0554L13.3004 5.05534L13.3055 5.05528L13.3105 5.05522L13.3155 5.05516L13.3206 5.0551L13.3256 5.05504L13.3306 5.05498L13.3356 5.05493L13.3407 5.05487L13.3457 5.05481L13.3507 5.05475L13.3557 5.05469L13.3607 5.05463L13.3657 5.05457L13.3708 5.05452L13.3758 5.05446L13.3808 5.0544L13.3858 5.05434L13.3908 5.05428L13.3958 5.05422L13.4008 5.05416L13.4058 5.05411L13.4108 5.05405L13.4158 5.05399L13.4208 5.05393L13.4258 5.05387L13.4308 5.05381L13.4358 5.05376L13.4408 5.0537L13.4458 5.05364L13.4508 5.05358L13.4558 5.05352L13.4608 5.05346L13.4658 5.05341L13.4708 5.05335L13.4757 5.05329L13.4807 5.05323L13.4857 5.05317L13.4907 5.05311L13.4957 5.05306L13.5007 5.053L13.5056 5.05294L13.5106 5.05288L13.5156 5.05282L13.5206 5.05277L13.5255 5.05271L13.5305 5.05265L13.5355 5.05259L13.5404 5.05253L13.5454 5.05248L13.5504 5.05242L13.5553 5.05236L13.5603 5.0523L13.5653 5.05224L13.5702 5.05219L13.5752 5.05213L13.5802 5.05207L13.5851 5.05201L13.5901 5.05195L13.595 5.0519L13.6 5.05184L13.6049 5.05178L13.6099 5.05172L13.6148 5.05166L13.6198 5.05161L13.6247 5.05155L13.6297 5.05149L13.6346 5.05143L13.6396 5.05137L13.6445 5.05132L13.6495 5.05126L13.6544 5.0512L13.6594 5.05114L13.6643 5.05109L13.6692 5.05103L13.6742 5.05097L13.6791 5.05091L13.6841 5.05086L13.689 5.0508L13.6939 5.05074L13.6989 5.05068L13.7038 5.05062L13.7087 5.05057L13.7137 5.05051L13.7186 5.05045L13.7235 5.05039L13.7285 5.05034L13.7334 5.05028L13.7383 5.05022L13.7432 5.05016L13.7482 5.05011L13.7531 5.05005L13.758 5.04999L13.7629 5.04993L13.7679 5.04988L13.7728 5.04982L13.7777 5.04976L13.7826 5.0497L13.7876 5.04965L13.7925 5.04959L13.7974 5.04953L13.8023 5.04947L13.8072 5.04942L13.8121 5.04936L13.8171 5.0493L13.822 5.04924L13.8269 5.04919L13.8318 5.04913L13.8367 5.04907L13.8416 5.04901L13.8465 5.04896L13.8514 5.0489L13.8563 5.04884L13.8613 5.04878L13.8662 5.04873L13.8711 5.04867L13.876 5.04861L13.8809 5.04856L13.8858 5.0485L13.8907 5.04844L13.8956 5.04838L13.9005 5.04833L13.9054 5.04827L13.9103 5.04821L13.9152 5.04815L13.9201 5.0481L13.925 5.04804L13.9299 5.04798L13.9348 5.04793L13.9397 5.04787L13.9446 5.04781L13.9495 5.04775L13.9544 5.0477L13.9593 5.04764L13.9642 5.04758L13.9691 5.04753L13.974 5.04747L13.9789 5.04741L13.9838 5.04735L13.9887 5.0473L13.9936 5.04724L13.9984 5.04718L14.0033 5.04712L14.0082 5.04707L14.0131 5.04701L14.018 5.04695L14.0229 5.0469L14.0278 5.04684L14.0327 5.04678L14.0376 5.04672L14.0425 5.04667L14.0473 5.04661L14.0522 5.04655L14.0571 5.0465L14.062 5.04644L14.0669 5.04638L14.0718 5.04633L14.0767 5.04627L14.0816 5.04621L14.0864 5.04615L14.0913 5.0461L14.0962 5.04604L14.1011 5.04598L14.106 5.04593L14.1109 5.04587L14.1157 5.04581L14.1206 5.04575L14.1255 5.0457L14.1304 5.04564L14.1353 5.04558L14.1402 5.04553L14.145 5.04547L14.1499 5.04541L14.1548 5.04536L14.1597 5.0453L14.1646 5.04524L14.1695 5.04518L14.1743 5.04513L14.1792 5.04507L14.1841 5.04501L14.189 5.04496L14.1939 5.0449L14.1987 5.04484L14.2036 5.04478L14.2085 5.04473L14.2134 5.04467L14.2183 5.04461L14.2231 5.04456L14.228 5.0445L14.2329 5.04444L14.2378 5.04439L14.2427 5.04433L14.2475 5.04427L14.2524 5.04421L14.2573 5.04416L14.2622 5.0441L14.2671 5.04404L14.2719 5.04399L14.2768 5.04393L14.2817 5.04387L14.2866 5.04382L14.2915 5.04376L14.2963 5.0437L14.3012 5.04364L14.3061 5.04359L14.311 5.04353L14.3159 5.04347L14.3207 5.04342L14.3256 5.04336L14.3305 5.0433L14.3354 5.04325L14.3403 5.04319L14.3451 5.04313L14.35 5.04307L14.3549 5.04302L14.3598 5.04296L14.3647 5.0429L14.3695 5.04285L14.3744 5.04279L14.3793 5.04273L14.3842 5.04268L14.3891 5.04262L14.394 5.04256L14.3988 5.0425L14.4037 5.04245L14.4086 5.04239L14.4135 5.04233L14.4184 5.04228L14.4232 5.04222L14.4281 5.04216L14.433 5.0421L14.4379 5.04205L14.4428 5.04199L14.4477 5.04193L14.4525 5.04188L14.4574 5.04182L14.4623 5.04176L14.4672 5.04171L14.4721 5.04165L14.477 5.04159L14.4819 5.04153L14.4868 5.04148L14.4916 5.04142L14.4965 5.04136L14.5014 5.04131L14.5063 5.04125L14.5112 5.04119L14.5161 5.04113L14.521 5.04108L14.5259 5.04102L14.5307 5.04096L14.5356 5.04091L14.5405 5.04085L14.5454 5.04079L14.5503 5.04073L14.5552 5.04068L14.5601 5.04062L14.565 5.04056L14.5699 5.04051L14.5748 5.04045L14.5797 5.04039L14.5846 5.04033L14.5895 5.04028L14.5944 5.04022L14.5993 5.04016L14.6042 5.04011L14.6091 5.04005L14.614 5.03999L14.6189 5.03993L14.6237 5.03988L14.6286 5.03982L14.6336 5.03976L14.6385 5.0397L14.6434 5.03965L14.6483 5.03959L14.6532 5.03953L14.6581 5.03948L14.663 5.03942L14.6679 5.03936L14.6728 5.0393L14.6777 5.03925L14.6826 5.03919L14.6875 5.03913L14.6924 5.03907L14.6973 5.03902L14.7022 5.03896L14.7071 5.0389L14.712 5.03884L14.717 5.03879L14.7219 5.03873L14.7268 5.03867L14.7317 5.03862L14.7366 5.03856L14.7415 5.0385L14.7464 5.03844L14.7514 5.03839L14.7563 5.03833L14.7612 5.03827L14.7661 5.03821L14.771 5.03816L14.776 5.0381L14.7809 5.03804L14.7858 5.03798L14.7907 5.03793L14.7956 5.03787L14.8006 5.03781L14.8055 5.03775L14.8104 5.0377L14.8153 5.03764L14.8203 5.03758L14.8252 5.03752L14.8301 5.03747L14.8351 5.03741L14.84 5.03735L14.8449 5.03729L14.8499 5.03723L14.8548 5.03718L14.8597 5.03712L14.8647 5.03706L14.8696 5.037L14.8745 5.03695L14.8795 5.03689L14.8844 5.03683L14.8894 5.03677L14.8943 5.03672L14.8993 5.03666L14.9042 5.0366L14.9091 5.03654L14.9141 5.03648C15.2824 5.03218 15.4243 4.72209 15.4541 4.58633C15.487 4.43702 15.4736 4.18539 15.263 4.00812C14.9227 3.72155 14.7293 3.31221 14.6244 2.90319C14.5201 2.49661 14.5142 2.13239 14.517 1.99111Z" fill="#131313" stroke="white"/>
</svg>
