<svg width="287" height="77" viewBox="0 0 287 77" fill="none" xmlns="http://www.w3.org/2000/svg">
<path d="M61.5399 22.1614C56.8282 19.8414 55 17.5 53.5 14.4689H35.8983C30.2337 14.4689 25.6416 19.0609 25.6416 24.7255V29.8539H53.8474C58.0959 29.8539 61.5399 26.4098 61.5399 22.1614Z" fill="white"/>
<path d="M0 37.5464C0 33.2979 3.44405 29.8539 7.69249 29.8539H25.6416V45.2389H7.69249C3.44405 45.2389 0 41.7948 0 37.5464Z" fill="white"/>
<path d="M10.2567 68.3163C10.2567 64.0679 13.7008 60.6238 17.9492 60.6238H25.6417V76.0088H17.9492C13.7008 76.0088 10.2567 72.5648 10.2567 68.3163V68.3163Z" fill="white"/>
<path d="M51.2833 52.9313C51.2833 48.6829 47.8393 45.2388 43.5908 45.2388H25.6417V60.6238H43.5908C47.8393 60.6238 51.2833 57.1798 51.2833 52.9313Z" fill="white"/>
<path d="M57.4903 5.01298C57.4954 4.82944 57.6192 4.69228 57.7705 4.69051L70.1905 4.5454C70.3642 4.54337 70.5043 4.72313 70.5 4.93394C70.4664 6.60951 70.6335 13.2529 75.1465 17.0527C75.3959 17.2628 75.2848 17.7831 74.9818 17.7866C70.7355 17.8362 66.7166 17.8832 62.0312 17.9379C61.9614 17.9387 61.8921 17.9087 61.8387 17.8537C57.5205 13.4108 57.4477 6.56329 57.4903 5.01298Z" fill="#E50B71"/>
<path d="M93.8835 63V35.448C93.8835 33.912 94.2195 32.552 94.8915 31.368C95.5635 30.152 96.4915 29.208 97.6755 28.536C98.8595 27.832 100.236 27.48 101.804 27.48C102.892 27.48 103.9 27.672 104.828 28.056C105.756 28.408 106.54 28.904 107.18 29.544L105.356 34.008C104.94 33.656 104.492 33.384 104.012 33.192C103.564 33 103.132 32.904 102.716 32.904C102.076 32.904 101.532 33.016 101.084 33.24C100.668 33.432 100.348 33.736 100.124 34.152C99.9315 34.568 99.8355 35.064 99.8355 35.64V60.024C99.8355 61.6676 98.5031 63 96.8595 63V63C96.2835 63 95.7395 63 95.2275 63C94.7475 63 94.2995 63 93.8835 63ZM93.9475 43.416C91.7384 43.416 89.9475 41.6251 89.9475 39.416V38.232H105.548V43.416H93.9475Z" fill="white"/>
<path d="M127.271 63V27.48H129.223C131.432 27.48 133.223 29.2708 133.223 31.48V63H127.271Z" fill="white"/>
<path d="M163.26 63.48C160.732 63.48 158.476 62.92 156.492 61.8C154.508 60.648 152.94 59.08 151.788 57.096C150.636 55.112 150.06 52.856 150.06 50.328C150.06 47.8 150.636 45.544 151.788 43.56C152.94 41.576 154.508 40.024 156.492 38.904C158.476 37.752 160.732 37.176 163.26 37.176C165.756 37.176 167.996 37.752 169.98 38.904C171.964 40.024 173.516 41.576 174.636 43.56C175.788 45.544 176.364 47.8 176.364 50.328C176.364 52.856 175.788 55.112 174.636 57.096C173.516 59.08 171.964 60.648 169.98 61.8C167.996 62.92 165.756 63.48 163.26 63.48ZM163.26 58.248C164.636 58.248 165.852 57.896 166.908 57.192C167.996 56.488 168.844 55.544 169.452 54.36C170.092 53.176 170.396 51.832 170.364 50.328C170.396 48.792 170.092 47.432 169.452 46.248C168.844 45.064 167.996 44.136 166.908 43.464C165.852 42.76 164.636 42.408 163.26 42.408C161.884 42.408 160.636 42.76 159.516 43.464C158.428 44.136 157.58 45.08 156.972 46.296C156.364 47.48 156.06 48.824 156.06 50.328C156.06 51.832 156.364 53.176 156.972 54.36C157.58 55.544 158.428 56.488 159.516 57.192C160.636 57.896 161.884 58.248 163.26 58.248Z" fill="white"/>
<path d="M203.197 63.48C201.117 63.48 199.229 62.904 197.533 61.752C195.837 60.6 194.477 59.032 193.453 57.048C192.429 55.064 191.917 52.808 191.917 50.28C191.917 47.752 192.429 45.496 193.453 43.512C194.477 41.528 195.869 39.976 197.629 38.856C199.389 37.736 201.373 37.176 203.581 37.176C204.861 37.176 206.029 37.368 207.085 37.752C208.141 38.104 209.069 38.616 209.869 39.288C210.669 39.96 211.325 40.728 211.837 41.592C212.381 42.456 212.749 43.384 212.941 44.376L211.645 44.04V37.704H217.597V59C217.597 61.2091 215.806 63 213.597 63H211.597V56.952L212.989 56.712C212.765 57.576 212.349 58.424 211.741 59.256C211.165 60.056 210.429 60.776 209.533 61.416C208.669 62.024 207.693 62.52 206.605 62.904C205.549 63.288 204.413 63.48 203.197 63.48ZM204.829 58.248C206.205 58.248 207.421 57.912 208.477 57.24C209.533 56.568 210.349 55.64 210.925 54.456C211.533 53.24 211.837 51.848 211.837 50.28C211.837 48.744 211.533 47.384 210.925 46.2C210.349 45.016 209.533 44.088 208.477 43.416C207.421 42.744 206.205 42.408 204.829 42.408C203.453 42.408 202.237 42.744 201.181 43.416C200.157 44.088 199.357 45.016 198.781 46.2C198.205 47.384 197.917 48.744 197.917 50.28C197.917 51.848 198.205 53.24 198.781 54.456C199.357 55.64 200.157 56.568 201.181 57.24C202.237 57.912 203.453 58.248 204.829 58.248Z" fill="white"/>
<path d="M239.178 63V35.272C239.178 33.0628 240.969 31.272 243.178 31.272H245.082V59C245.082 61.2091 243.291 63 241.082 63H239.178ZM234.186 43.176V37.704H250.602V43.176H234.186Z" fill="white"/>
<path d="M276.484 63.48C274.244 63.48 272.228 63.112 270.436 62.376C268.676 61.608 267.236 60.52 266.116 59.112L266.961 58.3832C268.62 56.9518 271.087 57.2862 273.111 58.1271C273.131 58.1355 273.152 58.1438 273.172 58.152C274.356 58.632 275.604 58.872 276.916 58.872C277.46 58.872 277.94 58.808 278.356 58.68C278.804 58.552 279.188 58.36 279.508 58.104C279.828 57.848 280.068 57.56 280.228 57.24C280.42 56.888 280.516 56.504 280.516 56.088C280.516 55.32 280.228 54.712 279.652 54.264C279.332 54.04 278.82 53.8 278.116 53.544C277.444 53.288 276.564 53.032 275.476 52.776C273.748 52.328 272.308 51.816 271.156 51.24C270.004 50.632 269.108 49.96 268.468 49.224C267.924 48.616 267.508 47.928 267.22 47.16C266.964 46.392 266.836 45.56 266.836 44.664C266.836 43.544 267.076 42.536 267.556 41.64C268.068 40.712 268.756 39.912 269.62 39.24C270.484 38.568 271.492 38.056 272.644 37.704C273.796 37.352 274.996 37.176 276.244 37.176C277.524 37.176 278.756 37.336 279.94 37.656C281.156 37.976 282.276 38.44 283.3 39.048C284.356 39.624 285.252 40.328 285.988 41.16L284.429 42.8788C283.493 43.911 281.898 43.9484 280.708 43.224V43.224C280.004 42.776 279.284 42.424 278.548 42.168C277.812 41.88 277.124 41.736 276.484 41.736C275.876 41.736 275.332 41.8 274.852 41.928C274.372 42.024 273.972 42.184 273.652 42.408C273.332 42.632 273.076 42.92 272.884 43.272C272.724 43.592 272.644 43.976 272.644 44.424C272.676 44.808 272.772 45.176 272.932 45.528C273.124 45.848 273.38 46.12 273.7 46.344C274.052 46.568 274.58 46.824 275.284 47.112C275.988 47.4 276.9 47.672 278.02 47.928C279.588 48.344 280.9 48.808 281.956 49.32C283.012 49.832 283.844 50.424 284.452 51.096C285.06 51.672 285.492 52.344 285.748 53.112C286.004 53.88 286.132 54.728 286.132 55.656C286.132 57.16 285.7 58.504 284.836 59.688C284.004 60.872 282.852 61.8 281.38 62.472C279.94 63.144 278.308 63.48 276.484 63.48Z" fill="white"/>
</svg>
