<svg width="224" height="60" viewBox="0 0 224 60" fill="none" xmlns="http://www.w3.org/2000/svg">
<path d="M48.1769 17.3491C44.4883 15.533 43.0571 13.7 41.8828 11.327H28.1032C23.6686 11.327 20.0737 14.922 20.0737 19.3565V23.3713H42.1548C45.4807 23.3713 48.1769 20.6751 48.1769 17.3491Z" fill="#E50B71"/>
<path d="M0 29.3935C0 26.0675 2.69619 23.3713 6.02212 23.3713H20.0737V35.4156H6.02212C2.69619 35.4156 0 32.7194 0 29.3935Z" fill="#13319A"/>
<path opacity="0.4" d="M8.02954 53.4818C8.02954 50.1559 10.7257 47.4597 14.0517 47.4597H20.0738V59.5039H14.0517C10.7257 59.5039 8.02954 56.8078 8.02954 53.4818V53.4818Z" fill="#4C91F7"/>
<path d="M40.1475 41.4376C40.1475 38.1117 37.4513 35.4155 34.1253 35.4155H20.0737V47.4598H34.1253C37.4513 47.4598 40.1475 44.7636 40.1475 41.4376Z" fill="#4C91F7"/>
<path d="M45.0067 3.92454C45.0107 3.78086 45.1076 3.67348 45.226 3.67209L54.9491 3.55849C55.0851 3.55691 55.1948 3.69763 55.1914 3.86267C55.1651 5.1744 55.2959 10.3752 58.8289 13.3499C59.0242 13.5144 58.9372 13.9217 58.7 13.9245C55.3758 13.9633 52.2296 14.0001 48.5615 14.0429C48.5069 14.0436 48.4527 14.02 48.4109 13.977C45.0304 10.4988 44.9733 5.13821 45.0067 3.92454Z" fill="#E50B71"/>
<path d="M73.4973 49.3199V27.7506C73.4973 26.5481 73.7604 25.4835 74.2865 24.5566C74.8125 23.6046 75.539 22.8656 76.4659 22.3395C77.3928 21.7884 78.47 21.5128 79.6976 21.5128C80.5493 21.5128 81.3384 21.6631 82.0649 21.9637C82.7914 22.2393 83.4052 22.6276 83.9062 23.1286L82.4783 26.6233C82.1526 26.3477 81.8019 26.1348 81.4261 25.9845C81.0754 25.8342 80.7372 25.759 80.4115 25.759C79.9105 25.759 79.4846 25.8467 79.1339 26.0221C78.8082 26.1724 78.5577 26.4104 78.3824 26.736C78.2321 27.0617 78.1569 27.45 78.1569 27.9009V46.9901C78.1569 48.2768 77.1138 49.3199 75.8271 49.3199V49.3199C75.3762 49.3199 74.9503 49.3199 74.5495 49.3199C74.1737 49.3199 73.823 49.3199 73.4973 49.3199ZM74.416 33.9884C72.2069 33.9884 70.416 32.1976 70.416 29.9884V29.9301H82.6286V33.9884H74.416Z" fill="#13319A"/>
<path d="M99.6351 49.3199V21.5128H100.295C102.504 21.5128 104.295 23.3037 104.295 25.5128V49.3199H99.6351Z" fill="#13319A"/>
<path d="M127.809 49.6956C125.83 49.6956 124.064 49.2572 122.511 48.3804C120.958 47.4786 119.73 46.2511 118.828 44.6979C117.926 43.1447 117.475 41.3786 117.475 39.3995C117.475 37.4205 117.926 35.6543 118.828 34.1011C119.73 32.548 120.958 31.333 122.511 30.4562C124.064 29.5543 125.83 29.1034 127.809 29.1034C129.763 29.1034 131.517 29.5543 133.07 30.4562C134.623 31.333 135.838 32.548 136.715 34.1011C137.617 35.6543 138.068 37.4205 138.068 39.3995C138.068 41.3786 137.617 43.1447 136.715 44.6979C135.838 46.2511 134.623 47.4786 133.07 48.3804C131.517 49.2572 129.763 49.6956 127.809 49.6956ZM127.809 45.5997C128.886 45.5997 129.838 45.3242 130.665 44.773C131.517 44.2219 132.181 43.4829 132.657 42.556C133.158 41.6291 133.396 40.5769 133.371 39.3995C133.396 38.197 133.158 37.1324 132.657 36.2055C132.181 35.2786 131.517 34.5521 130.665 34.026C129.838 33.4749 128.886 33.1993 127.809 33.1993C126.732 33.1993 125.755 33.4749 124.878 34.026C124.026 34.5521 123.363 35.2911 122.887 36.243C122.411 37.1699 122.173 38.2221 122.173 39.3995C122.173 40.5769 122.411 41.6291 122.887 42.556C123.363 43.4829 124.026 44.2219 124.878 44.773C125.755 45.3242 126.732 45.5997 127.809 45.5997Z" fill="#13319A"/>
<path d="M159.074 49.6956C157.446 49.6956 155.968 49.2447 154.64 48.3429C153.312 47.441 152.248 46.2135 151.446 44.6603C150.644 43.1071 150.244 41.341 150.244 39.3619C150.244 37.3829 150.644 35.6168 151.446 34.0636C152.248 32.5104 153.337 31.2954 154.715 30.4186C156.093 29.5418 157.646 29.1034 159.375 29.1034C160.377 29.1034 161.291 29.2537 162.118 29.5543C162.945 29.8299 163.671 30.2307 164.297 30.7568C164.924 31.2829 165.437 31.8841 165.838 32.5605C166.264 33.2369 166.552 33.9634 166.702 34.74L165.688 34.4769V29.5167H170.347V45.3199C170.347 47.529 168.556 49.3199 166.347 49.3199H165.65V44.5852L166.74 44.3973C166.565 45.0737 166.239 45.7375 165.763 46.3889C165.312 47.0151 164.736 47.5788 164.034 48.0798C163.358 48.5558 162.594 48.9441 161.742 49.2447C160.915 49.5453 160.026 49.6956 159.074 49.6956ZM160.352 45.5997C161.429 45.5997 162.381 45.3367 163.208 44.8106C164.034 44.2845 164.673 43.5581 165.124 42.6311C165.6 41.6792 165.838 40.5895 165.838 39.3619C165.838 38.1595 165.6 37.0948 165.124 36.1679C164.673 35.241 164.034 34.5145 163.208 33.9884C162.381 33.4623 161.429 33.1993 160.352 33.1993C159.275 33.1993 158.323 33.4623 157.496 33.9884C156.694 34.5145 156.068 35.241 155.617 36.1679C155.166 37.0948 154.941 38.1595 154.941 39.3619C154.941 40.5895 155.166 41.6792 155.617 42.6311C156.068 43.5581 156.694 44.2845 157.496 44.8106C158.323 45.3367 159.275 45.5997 160.352 45.5997Z" fill="#13319A"/>
<path d="M187.242 49.3199V28.4814C187.242 26.2723 189.033 24.4814 191.242 24.4814H191.864V45.3199C191.864 47.529 190.073 49.3199 187.864 49.3199H187.242ZM183.334 33.8005V29.5167H196.185V33.8005H183.334Z" fill="#13319A"/>
<path d="M216.447 49.6956C214.693 49.6956 213.115 49.4076 211.712 48.8314C210.335 48.2301 209.207 47.3784 208.33 46.2761L208.953 45.739C210.274 44.6 212.238 44.8693 213.854 45.5246V45.5246C214.781 45.9004 215.758 46.0882 216.785 46.0882C217.211 46.0882 217.587 46.0381 217.913 45.9379C218.263 45.8377 218.564 45.6874 218.814 45.487C219.065 45.2866 219.253 45.0611 219.378 44.8106C219.528 44.5351 219.604 44.2344 219.604 43.9088C219.604 43.3075 219.378 42.8316 218.927 42.4808C218.677 42.3055 218.276 42.1176 217.725 41.9172C217.199 41.7168 216.51 41.5164 215.658 41.3159C214.305 40.9652 213.178 40.5644 212.276 40.1135C211.374 39.6375 210.673 39.1114 210.172 38.5352C209.746 38.0593 209.42 37.5207 209.195 36.9194C208.994 36.3182 208.894 35.6669 208.894 34.9654C208.894 34.0886 209.082 33.2995 209.458 32.5981C209.859 31.8716 210.397 31.2453 211.074 30.7192C211.75 30.1931 212.539 29.7923 213.441 29.5167C214.343 29.2412 215.282 29.1034 216.259 29.1034C217.261 29.1034 218.226 29.2286 219.153 29.4792C220.105 29.7297 220.981 30.0929 221.783 30.5689C222.61 31.0198 223.311 31.571 223.887 32.2223L222.667 33.5679C221.935 34.376 220.686 34.4052 219.754 33.8381V33.8381C219.203 33.4874 218.639 33.2118 218.063 33.0114C217.487 32.7859 216.948 32.6732 216.447 32.6732C215.971 32.6732 215.545 32.7233 215.169 32.8235C214.794 32.8987 214.481 33.0239 214.23 33.1993C213.98 33.3747 213.779 33.6001 213.629 33.8757C213.504 34.1262 213.441 34.4268 213.441 34.7775C213.466 35.0782 213.541 35.3662 213.666 35.6418C213.817 35.8923 214.017 36.1053 214.268 36.2806C214.543 36.456 214.957 36.6564 215.508 36.8819C216.059 37.1073 216.773 37.3203 217.65 37.5207C218.877 37.8463 219.904 38.2096 220.731 38.6104C221.558 39.0112 222.209 39.4747 222.685 40.0008C223.161 40.4517 223.499 40.9778 223.699 41.579C223.9 42.1802 224 42.8441 224 43.5706C224 44.748 223.662 45.8001 222.985 46.7271C222.334 47.654 221.432 48.3804 220.28 48.9065C219.153 49.4326 217.875 49.6956 216.447 49.6956Z" fill="#13319A"/>
</svg>
